<svg width="60" height="60" viewBox="0 0 60 60" fill="none" xmlns="http://www.w3.org/2000/svg">
<g clip-path="url(#clip0_38_7)">
<path d="M23.28 14H36.72C41.84 14 46 18.16 46 23.28V36.72C46 39.1812 45.0223 41.5416 43.282 43.282C41.5416 45.0223 39.1812 46 36.72 46H23.28C18.16 46 14 41.84 14 36.72V23.28C14 20.8188 14.9777 18.4584 16.718 16.718C18.4584 14.9777 20.8188 14 23.28 14ZM22.96 17.2C21.4324 17.2 19.9673 17.8069 18.8871 18.8871C17.8069 19.9673 17.2 21.4324 17.2 22.96V37.04C17.2 40.224 19.776 42.8 22.96 42.8H37.04C38.5676 42.8 40.0327 42.1931 41.1129 41.1129C42.1931 40.0327 42.8 38.5676 42.8 37.04V22.96C42.8 19.776 40.224 17.2 37.04 17.2H22.96ZM38.4 19.6C38.9304 19.6 39.4391 19.8107 39.8142 20.1858C40.1893 20.5609 40.4 21.0696 40.4 21.6C40.4 22.1304 40.1893 22.6391 39.8142 23.0142C39.4391 23.3893 38.9304 23.6 38.4 23.6C37.8696 23.6 37.3609 23.3893 36.9858 23.0142C36.6107 22.6391 36.4 22.1304 36.4 21.6C36.4 21.0696 36.6107 20.5609 36.9858 20.1858C37.3609 19.8107 37.8696 19.6 38.4 19.6ZM30 22C32.1217 22 34.1566 22.8429 35.6569 24.3431C37.1571 25.8434 38 27.8783 38 30C38 32.1217 37.1571 34.1566 35.6569 35.6569C34.1566 37.1571 32.1217 38 30 38C27.8783 38 25.8434 37.1571 24.3431 35.6569C22.8429 34.1566 22 32.1217 22 30C22 27.8783 22.8429 25.8434 24.3431 24.3431C25.8434 22.8429 27.8783 22 30 22ZM30 25.2C28.727 25.2 27.5061 25.7057 26.6059 26.6059C25.7057 27.5061 25.2 28.727 25.2 30C25.2 31.273 25.7057 32.4939 26.6059 33.3941C27.5061 34.2943 28.727 34.8 30 34.8C31.273 34.8 32.4939 34.2943 33.3941 33.3941C34.2943 32.4939 34.8 31.273 34.8 30C34.8 28.727 34.2943 27.5061 33.3941 26.6059C32.4939 25.7057 31.273 25.2 30 25.2Z" fill="#4F7DF3"/>
<circle cx="30" cy="30" r="29.25" stroke="#C2D3FF" stroke-width="1.5"/>
</g>
<defs>
<clipPath id="clip0_38_7">
<rect width="60" height="60" fill="white"/>
</clipPath>
</defs>
</svg>
