<svg width="60" height="60" viewBox="0 0 60 60" fill="none" xmlns="http://www.w3.org/2000/svg">
<path d="M46 20.0593C44.8222 20.5946 43.5526 20.9465 42.2371 21.1147C43.5832 20.304 44.6233 19.0191 45.1128 17.4742C43.8432 18.239 42.4359 18.7744 40.9522 19.0803C39.7438 17.7648 38.0459 17 36.1185 17C32.5239 17 29.587 19.9369 29.587 23.5621C29.587 24.0822 29.6482 24.587 29.7553 25.0612C24.3098 24.7859 19.4608 22.1702 16.2333 18.2084C15.6673 19.1721 15.3461 20.304 15.3461 21.4971C15.3461 23.7763 16.4933 25.7954 18.2677 26.9426C17.1816 26.9426 16.1721 26.6367 15.2849 26.1778V26.2237C15.2849 29.4054 17.5488 32.0669 20.5468 32.6635C19.5843 32.9269 18.5738 32.9636 17.5946 32.7706C18.0101 34.0745 18.8238 35.2155 19.9212 36.0332C21.0187 36.8508 22.3449 37.3039 23.7132 37.3289C21.3937 39.1651 18.5185 40.1577 15.5602 40.1434C15.0402 40.1434 14.5201 40.1128 14 40.0516C16.9063 41.9178 20.3633 43.0038 24.065 43.0038C36.1185 43.0038 42.7419 33 42.7419 24.327C42.7419 24.0363 42.7419 23.761 42.7266 23.4704C44.0115 22.5526 45.1128 21.3901 46 20.0593Z" fill="#4F7DF3"/>
<circle cx="30" cy="30" r="29.25" stroke="#C2D3FF" stroke-width="1.5"/>
</svg>
